<svg version="1.1" id="Layer_1" xmlns="http://www.w3.org/2000/svg" xmlns:xlink="http://www.w3.org/1999/xlink" x="0px" y="0px"
	 width="100%" viewBox="0 0 1080 1080" enable-background="new 0 0 1080 1080" xml:space="preserve">
<path fill="#000000" opacity="1.000000" stroke="none" 
	d="
M743.000000,1081.000000 
	C495.361847,1081.000000 248.223709,1081.000000 1.042783,1081.000000 
	C1.042783,721.070068 1.042783,361.140137 1.042783,1.105096 
	C360.888367,1.105096 720.776733,1.105096 1080.832520,1.105096 
	C1080.832520,360.999939 1080.832520,720.999939 1080.832520,1081.000000 
	C968.472961,1081.000000 855.986511,1081.000000 743.000000,1081.000000 
M279.520813,647.020142 
	C281.350281,650.047668 283.020599,653.185852 285.036285,656.083923 
	C294.719666,670.006287 304.268372,684.031433 314.315247,697.688843 
	C321.731293,707.769958 329.439606,717.697876 337.752869,727.039795 
	C346.130646,736.454163 355.316772,745.242676 366.825867,750.909546 
	C371.852600,753.384644 377.124207,754.815735 382.476105,750.919006 
	C396.722443,740.546265 411.090454,730.340576 425.415039,720.075378 
	C446.430450,705.015442 467.471832,689.991577 488.459137,674.892517 
	C499.423218,667.004517 510.295624,658.989197 521.812195,650.591919 
	C516.344055,642.633423 511.007843,634.996948 505.834229,627.251892 
	C504.418610,625.132690 503.659332,624.378662 501.078705,626.254578 
	C490.458893,633.974426 478.107208,635.628967 465.663483,633.634949 
	C454.302765,631.814453 444.209259,625.881104 434.936401,619.267578 
	C415.664764,605.522644 400.007080,588.043274 385.769257,569.285034 
	C376.078369,556.517334 366.314026,543.780334 357.223145,530.588135 
	C343.597229,510.814972 330.517212,490.665222 317.237030,470.654358 
	C308.957245,458.178131 300.736389,445.662750 292.549622,433.256683 
	C293.280060,431.959320 294.126465,430.411743 295.013458,428.887787 
	C299.865143,420.551941 304.572296,412.127045 309.620453,403.911713 
	C317.623657,390.887268 325.744446,377.931702 334.024353,365.081604 
	C342.572968,351.814545 351.309448,338.666779 360.123810,325.574585 
	C361.509155,323.516907 363.099518,322.888123 365.438934,325.684418 
	C370.752319,332.035431 376.000916,338.840149 382.598999,343.642426 
	C402.912262,358.427063 426.088440,366.301880 451.022430,368.874023 
	C453.140350,369.092529 455.770142,368.031128 457.589081,366.750458 
	C462.359009,363.391998 466.843903,359.622803 471.384125,355.945343 
	C478.988434,349.785980 486.545197,343.567902 494.126038,337.379578 
	C502.455933,330.579773 510.781097,323.774109 519.125427,316.992035 
	C528.608032,309.284790 538.070251,301.551453 547.627136,293.937164 
	C550.448608,291.689178 550.293518,289.553131 548.397400,286.846466 
	C545.164978,282.232178 542.147827,277.467560 538.953674,272.825714 
	C538.160217,271.672668 537.034973,270.747894 536.028137,269.682068 
	C533.611755,271.221222 531.662231,272.690521 529.521240,273.785461 
	C522.121277,277.569946 514.552979,279.511627 506.184418,276.726288 
	C495.860291,273.290070 489.150269,265.060913 481.227417,258.488525 
	C472.062012,250.885406 463.976013,241.824966 454.253723,235.080383 
	C430.971954,218.929214 407.094788,218.045532 383.829254,234.151733 
	C370.719574,243.227280 359.367035,254.519913 349.469177,267.092773 
	C339.332581,279.968933 328.849640,292.635223 319.617126,306.144318 
	C308.463531,322.464386 298.073212,339.343933 288.064423,356.399109 
	C275.127258,378.444244 262.560974,400.723541 250.463593,423.239746 
	C240.825043,441.179504 232.036026,459.579865 223.041962,477.860413 
	C215.249008,493.699585 207.677872,509.648132 200.050552,525.568359 
	C197.413239,531.073181 194.901764,536.638306 192.332809,542.175842 
	C191.888550,542.081543 191.444275,541.987244 191.000000,541.892883 
	C191.000000,540.163757 190.985748,538.434509 191.002121,536.705505 
	C191.332642,501.788391 191.611221,466.870605 192.028885,431.954498 
	C192.183441,419.033905 192.648254,406.116760 193.005417,393.198975 
	C193.311920,382.113007 193.895706,371.029053 193.927658,359.942932 
	C193.953308,351.046082 193.556290,342.132233 192.948105,333.253235 
	C192.176147,321.983582 191.420624,310.683807 189.883591,299.503510 
	C188.301544,287.995697 184.027359,277.266205 178.553650,266.986633 
	C169.005127,249.054535 154.293533,236.005585 138.388412,224.081070 
	C137.533401,223.440048 135.221024,223.602615 134.335144,224.317780 
	C124.433357,232.311401 114.653961,240.457733 104.891907,248.623077 
	C96.113335,255.965775 87.426826,263.418579 78.645744,270.758240 
	C69.133453,278.709076 59.570503,286.599457 50.007427,294.489288 
	C42.842999,300.400146 35.608700,306.226715 28.469435,312.167603 
	C21.680485,317.817047 15.050234,323.659546 8.191701,329.221680 
	C5.726152,331.221222 5.797026,333.091919 7.146873,335.555389 
	C10.303724,341.316711 13.398693,347.112946 16.438915,352.936707 
	C17.892059,355.720306 19.294321,355.123016 21.793818,353.885712 
	C29.358067,350.141296 36.997704,346.370972 44.964363,343.656830 
	C59.225254,338.798340 68.751450,345.846039 73.488808,357.708557 
	C77.966393,368.920624 78.729454,380.656830 78.786964,392.183502 
	C79.189407,472.843292 78.981392,553.506042 79.042793,634.167786 
	C79.046791,639.418640 79.788704,644.664673 79.973602,649.920410 
	C80.456299,663.640869 83.834770,676.798584 88.076584,689.702148 
	C96.447960,715.167847 110.522926,736.650208 133.299362,751.622314 
	C134.593353,752.472900 137.504852,752.481628 138.703934,751.590637 
	C145.618790,746.452820 152.290131,740.981567 158.956863,735.516968 
	C167.165924,728.788208 175.222626,721.872620 183.467758,715.189026 
	C192.939545,707.511353 202.621841,700.092834 212.074768,692.392456 
	C225.478729,681.473511 238.578110,670.171082 252.202515,659.538513 
	C256.044220,656.540405 255.801071,654.180847 253.563126,651.076843 
	C249.586716,645.561646 245.151154,640.361877 241.418167,634.694031 
	C239.822830,632.271729 239.108093,633.017517 237.319901,634.093811 
	C233.058578,636.658691 228.770264,639.293884 224.203796,641.212769 
	C214.601181,645.248047 210.191040,645.245178 204.501480,637.822632 
	C200.665146,632.817871 197.601593,627.391113 201.112335,620.273926 
	C205.283112,611.818726 208.297043,602.800781 212.048065,594.128662 
	C217.156738,582.317749 222.488419,570.603333 227.652695,559.008667 
	C244.865570,588.337952 261.928589,617.411926 279.520813,647.020142 
M685.030457,413.645325 
	C681.024292,418.386108 676.366211,422.724335 673.141174,427.947449 
	C665.234070,440.753235 657.420410,453.679657 650.626282,467.092987 
	C642.935791,482.275757 639.380859,498.899933 637.081726,515.682800 
	C635.640320,526.204590 634.983582,536.834351 633.993958,547.417419 
	C632.653076,561.755493 631.295105,576.092163 630.013611,590.435608 
	C629.269531,598.763000 629.198364,607.188782 627.877502,615.418335 
	C625.265930,631.690186 622.491028,647.967041 618.893494,664.042664 
	C612.063782,694.560791 600.029602,723.003601 582.450867,748.930481 
	C576.636414,757.506226 570.324280,765.801941 563.621704,773.701294 
	C557.316223,781.132690 550.521545,788.226746 543.346924,794.821777 
	C535.547791,801.990906 527.062439,808.413574 518.989014,815.068726 
	C523.190613,821.133484 527.289856,826.723511 531.020081,832.549805 
	C533.507507,836.434814 535.785461,836.704041 539.563477,834.032898 
	C559.200684,820.149109 579.246521,806.832336 598.665955,792.654907 
	C615.444885,780.405090 632.337830,768.118469 647.781982,754.286743 
	C663.771423,739.966675 678.301392,723.978149 693.059570,708.332581 
	C709.096985,691.330872 716.993652,670.070679 722.959961,647.993469 
	C725.374146,639.060425 727.343140,630.007019 729.516663,621.000000 
	C759.977905,621.000000 790.138123,621.022278 820.298035,620.945618 
	C822.140625,620.940918 824.593140,620.759094 825.717285,619.624634 
	C830.688354,614.607971 835.297058,609.230286 839.998169,603.948853 
	C843.963135,599.494446 847.875000,594.992676 852.082397,590.202087 
	C856.271851,602.665405 859.863525,614.273560 864.068420,625.655212 
	C871.448242,645.630859 878.729248,665.666321 886.943787,685.303528 
	C894.229675,702.720825 903.222961,719.407227 915.542236,733.880737 
	C923.310059,743.006897 932.799500,750.011414 944.828003,753.042542 
	C950.314270,754.424988 954.782837,753.785278 958.955200,749.684143 
	C962.190979,746.503662 965.949280,743.833801 969.592285,741.092590 
	C982.529541,731.358093 995.587769,721.783203 1008.468994,711.975586 
	C1028.869629,696.442810 1049.077393,680.654602 1069.611206,665.301270 
	C1072.263550,663.318054 1072.114868,662.141541 1070.999390,659.864624 
	C1068.029785,653.802979 1065.031494,647.752197 1062.237305,641.609436 
	C1060.959961,638.801514 1059.918945,638.390076 1057.114380,640.237549 
	C1048.172119,646.128540 1038.576050,646.714172 1029.173584,641.555664 
	C1017.599060,635.205444 1009.562805,625.404175 1002.527832,614.286560 
	C988.862610,592.690857 979.294861,569.247498 970.014404,545.645996 
	C964.156494,530.748657 958.706055,515.688232 953.244507,500.638611 
	C946.412598,481.812408 939.694092,462.944366 933.046692,444.052124 
	C928.531982,431.221130 924.514465,418.208893 919.754333,405.472107 
	C912.746277,386.720398 905.728516,367.947998 897.867920,349.546204 
	C890.505920,332.311340 882.751282,315.163330 873.840698,298.696106 
	C866.582886,285.283325 857.685547,272.706268 848.918030,260.176483 
	C840.301270,247.862106 829.222778,237.962418 816.061829,230.556656 
	C802.092712,222.696198 787.203064,222.083679 771.564331,223.794296 
	C753.571350,225.762390 737.069824,231.783966 721.403259,240.109879 
	C706.944458,247.793976 692.763184,256.126373 679.085083,265.123901 
	C658.746643,278.502686 640.351196,294.443359 622.565674,311.028992 
	C614.713623,318.351318 607.477966,326.333221 599.657837,333.691986 
	C596.412292,336.746033 595.434387,339.020142 598.334778,342.997040 
	C602.367859,348.527008 605.694336,354.572327 608.869812,359.669220 
	C620.434021,353.322418 631.066589,347.006256 642.114624,341.528198 
	C662.165344,331.586243 683.075500,325.755463 705.890381,328.912506 
	C724.283936,331.457794 738.577820,341.233368 751.725037,353.305664 
	C753.853088,355.259735 754.167664,357.650238 750.984009,359.608643 
	C747.958008,361.470001 745.339539,363.984467 742.355103,365.924500 
	C721.561096,379.441772 702.666748,395.239594 685.030457,413.645325 
z"/>
<path fill="#FFFFFF" opacity="1.000000" stroke="none" 
	d="
M279.256226,646.753052 
	C261.928589,617.411926 244.865570,588.337952 227.652695,559.008667 
	C222.488419,570.603333 217.156738,582.317749 212.048065,594.128662 
	C208.297043,602.800781 205.283112,611.818726 201.112335,620.273926 
	C197.601593,627.391113 200.665146,632.817871 204.501480,637.822632 
	C210.191040,645.245178 214.601181,645.248047 224.203796,641.212769 
	C228.770264,639.293884 233.058578,636.658691 237.319901,634.093811 
	C239.108093,633.017517 239.822830,632.271729 241.418167,634.694031 
	C245.151154,640.361877 249.586716,645.561646 253.563126,651.076843 
	C255.801071,654.180847 256.044220,656.540405 252.202515,659.538513 
	C238.578110,670.171082 225.478729,681.473511 212.074768,692.392456 
	C202.621841,700.092834 192.939545,707.511353 183.467758,715.189026 
	C175.222626,721.872620 167.165924,728.788208 158.956863,735.516968 
	C152.290131,740.981567 145.618790,746.452820 138.703934,751.590637 
	C137.504852,752.481628 134.593353,752.472900 133.299362,751.622314 
	C110.522926,736.650208 96.447960,715.167847 88.076584,689.702148 
	C83.834770,676.798584 80.456299,663.640869 79.973602,649.920410 
	C79.788704,644.664673 79.046791,639.418640 79.042793,634.167786 
	C78.981392,553.506042 79.189407,472.843292 78.786964,392.183502 
	C78.729454,380.656830 77.966393,368.920624 73.488808,357.708557 
	C68.751450,345.846039 59.225254,338.798340 44.964363,343.656830 
	C36.997704,346.370972 29.358067,350.141296 21.793818,353.885712 
	C19.294321,355.123016 17.892059,355.720306 16.438915,352.936707 
	C13.398693,347.112946 10.303724,341.316711 7.146873,335.555389 
	C5.797026,333.091919 5.726152,331.221222 8.191701,329.221680 
	C15.050234,323.659546 21.680485,317.817047 28.469435,312.167603 
	C35.608700,306.226715 42.842999,300.400146 50.007427,294.489288 
	C59.570503,286.599457 69.133453,278.709076 78.645744,270.758240 
	C87.426826,263.418579 96.113335,255.965775 104.891907,248.623077 
	C114.653961,240.457733 124.433357,232.311401 134.335144,224.317780 
	C135.221024,223.602615 137.533401,223.440048 138.388412,224.081070 
	C154.293533,236.005585 169.005127,249.054535 178.553650,266.986633 
	C184.027359,277.266205 188.301544,287.995697 189.883591,299.503510 
	C191.420624,310.683807 192.176147,321.983582 192.948105,333.253235 
	C193.556290,342.132233 193.953308,351.046082 193.927658,359.942932 
	C193.895706,371.029053 193.311920,382.113007 193.005417,393.198975 
	C192.648254,406.116760 192.183441,419.033905 192.028885,431.954498 
	C191.611221,466.870605 191.332642,501.788391 191.002121,536.705505 
	C190.985748,538.434509 191.000000,540.163757 191.000000,541.892883 
	C191.444275,541.987244 191.888550,542.081543 192.332809,542.175842 
	C194.901764,536.638306 197.413239,531.073181 200.050552,525.568359 
	C207.677872,509.648132 215.249008,493.699585 223.041962,477.860413 
	C232.036026,459.579865 240.825043,441.179504 250.463593,423.239746 
	C262.560974,400.723541 275.127258,378.444244 288.064423,356.399109 
	C298.073212,339.343933 308.463531,322.464386 319.617126,306.144318 
	C328.849640,292.635223 339.332581,279.968933 349.469177,267.092773 
	C359.367035,254.519913 370.719574,243.227280 383.829254,234.151733 
	C407.094788,218.045532 430.971954,218.929214 454.253723,235.080383 
	C463.976013,241.824966 472.062012,250.885406 481.227417,258.488525 
	C489.150269,265.060913 495.860291,273.290070 506.184418,276.726288 
	C514.552979,279.511627 522.121277,277.569946 529.521240,273.785461 
	C531.662231,272.690521 533.611755,271.221222 536.028137,269.682068 
	C537.034973,270.747894 538.160217,271.672668 538.953674,272.825714 
	C542.147827,277.467560 545.164978,282.232178 548.397400,286.846466 
	C550.293518,289.553131 550.448608,291.689178 547.627136,293.937164 
	C538.070251,301.551453 528.608032,309.284790 519.125427,316.992035 
	C510.781097,323.774109 502.455933,330.579773 494.126038,337.379578 
	C486.545197,343.567902 478.988434,349.785980 471.384125,355.945343 
	C466.843903,359.622803 462.359009,363.391998 457.589081,366.750458 
	C455.770142,368.031128 453.140350,369.092529 451.022430,368.874023 
	C426.088440,366.301880 402.912262,358.427063 382.598999,343.642426 
	C376.000916,338.840149 370.752319,332.035431 365.438934,325.684418 
	C363.099518,322.888123 361.509155,323.516907 360.123810,325.574585 
	C351.309448,338.666779 342.572968,351.814545 334.024353,365.081604 
	C325.744446,377.931702 317.623657,390.887268 309.620453,403.911713 
	C304.572296,412.127045 299.865143,420.551941 295.013458,428.887787 
	C294.126465,430.411743 293.280060,431.959320 292.549622,433.256683 
	C300.736389,445.662750 308.957245,458.178131 317.237030,470.654358 
	C330.517212,490.665222 343.597229,510.814972 357.223145,530.588135 
	C366.314026,543.780334 376.078369,556.517334 385.769257,569.285034 
	C400.007080,588.043274 415.664764,605.522644 434.936401,619.267578 
	C444.209259,625.881104 454.302765,631.814453 465.663483,633.634949 
	C478.107208,635.628967 490.458893,633.974426 501.078705,626.254578 
	C503.659332,624.378662 504.418610,625.132690 505.834229,627.251892 
	C511.007843,634.996948 516.344055,642.633423 521.812195,650.591919 
	C510.295624,658.989197 499.423218,667.004517 488.459137,674.892517 
	C467.471832,689.991577 446.430450,705.015442 425.415039,720.075378 
	C411.090454,730.340576 396.722443,740.546265 382.476105,750.919006 
	C377.124207,754.815735 371.852600,753.384644 366.825867,750.909546 
	C355.316772,745.242676 346.130646,736.454163 337.752869,727.039795 
	C329.439606,717.697876 321.731293,707.769958 314.315247,697.688843 
	C304.268372,684.031433 294.719666,670.006287 285.036285,656.083923 
	C283.020599,653.185852 281.350281,650.047668 279.256226,646.753052 
z"/>
<path fill="#FFFFFF" opacity="1.000000" stroke="none" 
	d="
M685.231995,413.347992 
	C702.666748,395.239594 721.561096,379.441772 742.355103,365.924500 
	C745.339539,363.984467 747.958008,361.470001 750.984009,359.608643 
	C754.167664,357.650238 753.853088,355.259735 751.725037,353.305664 
	C738.577820,341.233368 724.283936,331.457794 705.890381,328.912506 
	C683.075500,325.755463 662.165344,331.586243 642.114624,341.528198 
	C631.066589,347.006256 620.434021,353.322418 608.869812,359.669220 
	C605.694336,354.572327 602.367859,348.527008 598.334778,342.997040 
	C595.434387,339.020142 596.412292,336.746033 599.657837,333.691986 
	C607.477966,326.333221 614.713623,318.351318 622.565674,311.028992 
	C640.351196,294.443359 658.746643,278.502686 679.085083,265.123901 
	C692.763184,256.126373 706.944458,247.793976 721.403259,240.109879 
	C737.069824,231.783966 753.571350,225.762390 771.564331,223.794296 
	C787.203064,222.083679 802.092712,222.696198 816.061829,230.556656 
	C829.222778,237.962418 840.301270,247.862106 848.918030,260.176483 
	C857.685547,272.706268 866.582886,285.283325 873.840698,298.696106 
	C882.751282,315.163330 890.505920,332.311340 897.867920,349.546204 
	C905.728516,367.947998 912.746277,386.720398 919.754333,405.472107 
	C924.514465,418.208893 928.531982,431.221130 933.046692,444.052124 
	C939.694092,462.944366 946.412598,481.812408 953.244507,500.638611 
	C958.706055,515.688232 964.156494,530.748657 970.014404,545.645996 
	C979.294861,569.247498 988.862610,592.690857 1002.527832,614.286560 
	C1009.562805,625.404175 1017.599060,635.205444 1029.173584,641.555664 
	C1038.576050,646.714172 1048.172119,646.128540 1057.114380,640.237549 
	C1059.918945,638.390076 1060.959961,638.801514 1062.237305,641.609436 
	C1065.031494,647.752197 1068.029785,653.802979 1070.999390,659.864624 
	C1072.114868,662.141541 1072.263550,663.318054 1069.611206,665.301270 
	C1049.077393,680.654602 1028.869629,696.442810 1008.468994,711.975586 
	C995.587769,721.783203 982.529541,731.358093 969.592285,741.092590 
	C965.949280,743.833801 962.190979,746.503662 958.955200,749.684143 
	C954.782837,753.785278 950.314270,754.424988 944.828003,753.042542 
	C932.799500,750.011414 923.310059,743.006897 915.542236,733.880737 
	C903.222961,719.407227 894.229675,702.720825 886.943787,685.303528 
	C878.729248,665.666321 871.448242,645.630859 864.068420,625.655212 
	C859.863525,614.273560 856.271851,602.665405 852.082397,590.202087 
	C847.875000,594.992676 843.963135,599.494446 839.998169,603.948853 
	C835.297058,609.230286 830.688354,614.607971 825.717285,619.624634 
	C824.593140,620.759094 822.140625,620.940918 820.298035,620.945618 
	C790.138123,621.022278 759.977905,621.000000 729.516663,621.000000 
	C727.343140,630.007019 725.374146,639.060425 722.959961,647.993469 
	C716.993652,670.070679 709.096985,691.330872 693.059570,708.332581 
	C678.301392,723.978149 663.771423,739.966675 647.781982,754.286743 
	C632.337830,768.118469 615.444885,780.405090 598.665955,792.654907 
	C579.246521,806.832336 559.200684,820.149109 539.563477,834.032898 
	C535.785461,836.704041 533.507507,836.434814 531.020081,832.549805 
	C527.289856,826.723511 523.190613,821.133484 518.989014,815.068726 
	C527.062439,808.413574 535.547791,801.990906 543.346924,794.821777 
	C550.521545,788.226746 557.316223,781.132690 563.621704,773.701294 
	C570.324280,765.801941 576.636414,757.506226 582.450867,748.930481 
	C600.029602,723.003601 612.063782,694.560791 618.893494,664.042664 
	C622.491028,647.967041 625.265930,631.690186 627.877502,615.418335 
	C629.198364,607.188782 629.269531,598.763000 630.013611,590.435608 
	C631.295105,576.092163 632.653076,561.755493 633.993958,547.417419 
	C634.983582,536.834351 635.640320,526.204590 637.081726,515.682800 
	C639.380859,498.899933 642.935791,482.275757 650.626282,467.092987 
	C657.420410,453.679657 665.234070,440.753235 673.141174,427.947449 
	C676.366211,422.724335 681.024292,418.386108 685.231995,413.347992 
M785.500000,536.000000 
	C801.934326,536.000000 818.368652,536.000000 834.933105,536.000000 
	C817.212463,475.485962 786.987549,399.551514 775.389221,386.722046 
	C755.155823,434.517456 747.871033,484.923218 741.612122,536.000000 
	C756.549255,536.000000 770.524597,536.000000 785.500000,536.000000 
z"/>
<path fill="#000000" opacity="1.000000" stroke="none" 
	d="
M785.000000,536.000000 
	C770.524597,536.000000 756.549255,536.000000 741.612122,536.000000 
	C747.871033,484.923218 755.155823,434.517456 775.389221,386.722046 
	C786.987549,399.551514 817.212463,475.485962 834.933105,536.000000 
	C818.368652,536.000000 801.934326,536.000000 785.000000,536.000000 
z"/>
</svg>