<?xml version="1.0" encoding="UTF-8"?>
<svg version="1.1" xmlns="http://www.w3.org/2000/svg" width="1080" height="1080">
<path d="M0 0 C2.1934488 0.84576557 3.67182584 1.82628594 5.49804688 3.30200195 C6.14563965 3.82334717 6.79323242 4.34469238 7.46044922 4.88183594 C8.14316895 5.44717041 8.82588867 6.01250488 9.52929688 6.5949707 C10.23908691 7.18028564 10.94887695 7.76560059 11.68017578 8.36865234 C39.38104395 31.50882165 52.92551395 59.83525676 56.3216095 95.88542175 C56.99696754 104.78209598 57.18497951 113.62865471 57.15039062 122.5480957 C57.14905058 123.27778816 57.14771053 124.00748062 57.14632988 124.75928497 C57.11554626 139.85248417 56.70347482 154.92717706 56.23138428 170.01184082 C55.16845035 204.18091458 54.70608042 238.34897176 54.40429688 272.5324707 C54.39405109 273.68937912 54.38380531 274.84628754 54.37324905 276.03825378 C54.24789626 290.28624606 54.1331857 304.53430621 54.02929688 318.7824707 C54.68929687 318.7824707 55.34929687 318.7824707 56.02929688 318.7824707 C56.39667969 317.57719727 56.7640625 316.37192383 57.14257812 315.13012695 C59.3223252 308.60108935 62.28809456 302.43865828 65.21679688 296.2199707 C65.80510691 294.96183324 66.39324032 293.70361318 66.98120117 292.4453125 C70.31651628 285.32604026 73.72099394 278.24580696 77.28637695 271.23852539 C79.59556018 266.69439354 81.76286785 262.09520378 83.90429688 257.4699707 C86.98909417 250.83791928 90.31309868 244.36742732 93.75976562 237.91723633 C97.59459617 230.69974183 101.23168461 223.39056509 104.8626709 216.06930542 C111.17619997 203.34476603 117.69444344 190.77723472 124.60253906 178.36254883 C126.06677516 175.71469683 127.508118 173.05551582 128.94335938 170.3918457 C148.61779837 133.90292756 169.96308903 97.85607618 195.02929688 64.7824707 C195.85362199 63.6809878 196.67784114 62.57942558 197.50195312 61.4777832 C205.24013865 51.2066551 213.35193431 40.95092944 222.72460938 32.11450195 C224.27740903 30.61173438 224.27740903 30.61173438 226.02929688 27.7824707 C226.68929688 27.7824707 227.34929687 27.7824707 228.02929688 27.7824707 C228.02929688 27.1224707 228.02929688 26.4624707 228.02929688 25.7824707 C230.45798185 23.19969998 233.2906583 21.02691885 236.02929688 18.7824707 C237.02058594 17.96649414 238.011875 17.15051758 239.03320312 16.30981445 C245.9288463 10.75393834 252.81943434 6.24707843 261.02929688 2.7824707 C262.17011719 2.27393555 262.17011719 2.27393555 263.33398438 1.75512695 C277.32978305 -3.4993511 294.06487444 -0.61430083 307.28710938 5.2199707 C316.07490226 9.62445485 323.52697709 15.51403743 331.02929688 21.7824707 C331.83753906 22.44762695 332.64578125 23.1127832 333.47851562 23.7980957 C337.21030743 26.95412535 340.368194 30.28291255 343.48632812 34.03637695 C351.2946135 42.8725885 362.59180711 52.65624458 374.61523438 54.09106445 C382.66749496 54.46322776 389.18695166 52.28834801 395.90429688 47.9074707 C396.60554687 47.5362207 397.30679688 47.1649707 398.02929688 46.7824707 C402.02517576 48.03831835 403.43554627 50.54923105 405.52929688 54.0324707 C407.44024536 57.18306464 409.33709931 60.25898162 411.52929688 63.2199707 C413.02929688 65.7824707 413.02929688 65.7824707 412.97851562 67.6262207 C411.55714375 70.85501607 409.02858093 72.68311902 406.34179688 74.8449707 C405.76236328 75.32321289 405.18292969 75.80145508 404.5859375 76.29418945 C399.87461156 80.16041182 395.07421851 83.91513356 390.26293945 87.65576172 C386.26815508 90.77190352 382.3770926 93.98703495 378.52929688 97.2824707 C373.54504479 101.55122188 368.44118037 105.63129413 363.25976562 109.6574707 C359.26677403 112.77395195 355.37623413 115.98785417 351.52929688 119.2824707 C346.52479362 123.56758138 341.42757597 127.70701094 336.18725586 131.70141602 C333.30097235 133.91688992 330.58249856 136.15929654 328.00585938 138.73168945 C324.25588036 142.40644321 321.0076005 145.44273865 315.68554688 146.35668945 C311.69072677 146.2047126 307.92598998 145.6116277 304.02929688 144.7824707 C303.21187012 144.62230469 302.39444336 144.46213867 301.55224609 144.29711914 C289.86001278 141.96607952 278.87798227 138.73909292 268.02929688 133.7824707 C267.43036621 133.51176758 266.83143555 133.24106445 266.21435547 132.9621582 C249.83399168 125.47798878 235.82505951 115.01042899 226.02929688 99.7824707 C219.90805767 108.03150382 214.14077955 116.47316448 208.46679688 125.0324707 C207.58613546 126.35825906 206.70543833 127.68402369 205.82470703 129.00976562 C203.63108801 132.31426933 201.44163368 135.62150644 199.25421143 138.93011475 C198.10577036 140.666825 196.95610574 142.40271866 195.80615234 144.13842773 C188.36788033 155.38126227 181.13002843 166.68192706 174.41894531 178.37426758 C172.76383696 181.24250173 171.08856975 184.09854022 169.41210938 186.9543457 C168.13863056 189.12619648 166.86519291 191.29807139 165.59179688 193.4699707 C164.68578735 195.01285767 164.68578735 195.01285767 163.76147461 196.58691406 C163.19114502 197.56281494 162.62081543 198.53871582 162.03320312 199.54418945 C161.5260376 200.41003662 161.01887207 201.27588379 160.49633789 202.16796875 C158.90985953 204.99532717 157.45802012 207.87265984 156.02929688 210.7824707 C156.5074585 211.42571289 156.98562012 212.06895508 157.47827148 212.73168945 C162.77373166 219.92484452 167.73153855 227.2875565 172.59179688 234.7824707 C173.6659082 236.42989258 173.6659082 236.42989258 174.76171875 238.1105957 C177.93774353 242.98878481 181.09403881 247.8771897 184.19726562 252.80200195 C189.30450213 260.84690052 194.62632169 268.75224163 199.91601562 276.67773438 C201.7627865 279.44522894 203.60710572 282.21434526 205.45117188 284.98364258 C219.39028691 305.93915049 219.39028691 305.93915049 234.02929688 326.4074707 C234.61759277 327.2017749 235.20588867 327.9960791 235.81201172 328.81445312 C248.02110555 345.23375032 261.02600844 360.86128379 275.02929688 375.7824707 C276.08117187 376.93295898 276.08117187 376.93295898 277.15429688 378.10668945 C291.86149133 393.62166542 314.40532037 409.75752188 336.31054688 410.8527832 C346.14669923 410.59839995 354.53397176 408.12745121 362.90429688 403.0324707 C365.02929688 401.7824707 365.02929688 401.7824707 368.02929688 401.7824707 C369.83862305 403.93798828 369.83862305 403.93798828 371.82226562 406.92700195 C372.89057617 408.53091797 372.89057617 408.53091797 373.98046875 410.16723633 C374.34712646 410.72967041 374.71378418 411.29210449 375.09155273 411.87158203 C376.21085275 413.58586687 377.34802974 415.28714784 378.48828125 416.98754883 C384.02929688 425.38226313 384.02929688 425.38226313 384.02929688 428.7824707 C381.61198296 430.71020205 379.21593232 432.43996945 376.65429688 434.1574707 C375.0819456 435.23843116 373.51035485 436.32049853 371.93945312 437.40356445 C371.12492676 437.96156738 370.31040039 438.51957031 369.47119141 439.09448242 C365.63623929 441.74543812 361.86404171 444.48085939 358.09179688 447.2199707 C356.58010636 448.31375973 355.06838746 449.40750953 353.55664062 450.5012207 C351.3060404 452.1316835 349.0560853 453.76302246 346.80712891 455.39575195 C338.20335951 461.64198595 329.56481088 467.82854779 320.84179688 473.9074707 C313.75399359 478.84782385 306.74541846 483.87790101 299.79492188 489.0090332 C289.115049 496.89125606 278.32055621 504.61773576 267.45288086 512.23852539 C263.64097631 514.91713697 259.85845751 517.62991078 256.10351562 520.38793945 C255.28753906 520.98541992 254.4715625 521.58290039 253.63085938 522.19848633 C252.05533511 523.35463561 250.4835298 524.51587497 248.91601562 525.68286133 C248.20445312 526.20428711 247.49289062 526.72571289 246.75976562 527.26293945 C246.13481201 527.72595459 245.5098584 528.18896973 244.8659668 528.66601562 C242.14696158 530.31881516 239.99083607 530.91958859 236.83789062 530.4699707 C213.03630676 523.56868774 194.78227099 499.36364955 180.73999023 480.07739258 C178.67394643 477.30576253 176.53321673 474.59679005 174.40039062 471.8762207 C168.25584087 463.96058072 162.74193075 455.63638753 157.21679688 447.2824707 C156.68949982 446.48811615 156.16220276 445.6937616 155.618927 444.87533569 C148.05963908 433.48584073 140.60955571 422.04475151 133.56298828 410.32885742 C131.86889281 407.51615196 130.15817114 404.71388646 128.44726562 401.91137695 C116.60020986 382.42576463 105.31283688 362.59470869 94.99682617 342.25170898 C93.23325411 338.35689755 93.23325411 338.35689755 90.02929688 335.7824707 C89.91553711 336.48976318 89.80177734 337.19705566 89.68457031 337.92578125 C88.97299341 341.02792782 87.88322822 343.60250977 86.54492188 346.48950195 C86.02752441 347.6187207 85.51012695 348.74793945 84.97705078 349.91137695 C84.70032532 350.51095215 84.42359985 351.11052734 84.13848877 351.72827148 C79.05241529 362.77838665 74.17198651 373.91621179 69.53210449 385.16098022 C68.94901675 386.57019002 68.36123519 387.97746721 67.76867676 389.38272095 C66.93873633 391.35457749 66.12630163 393.33276706 65.31835938 395.3137207 C64.85123535 396.44358398 64.38411133 397.57344727 63.90283203 398.73754883 C62.34337704 404.17341317 64.40648547 408.13779973 66.93945312 412.9152832 C69.33554822 417.02042104 70.95512428 418.48094857 75.59179688 419.7824707 C84.17839323 420.43562553 92.02197252 415.48857304 98.93554688 410.9543457 C101.02929688 409.7824707 101.02929688 409.7824707 104.02929688 409.7824707 C105.62329102 411.46313477 105.62329102 411.46313477 107.31445312 413.7980957 C108.23387695 415.05686523 108.23387695 415.05686523 109.171875 416.34106445 C109.80544922 417.22922852 110.43902344 418.11739258 111.09179688 419.0324707 C111.72923828 419.90516602 112.36667969 420.77786133 113.0234375 421.67700195 C115.63777777 425.28583837 118.13544024 428.73564054 120.02929688 432.7824707 C112.14305248 439.60054943 104.2201133 446.33033505 96.02929688 452.7824707 C90.02556129 457.5605633 84.06030679 462.38213135 78.12695312 467.24731445 C74.54023571 470.18595723 70.94112154 473.10929342 67.34179688 476.0324707 C66.66221924 476.58451172 65.9826416 477.13655273 65.2824707 477.70532227 C61.87114523 480.47599881 58.45873295 483.24532609 55.04492188 486.01293945 C53.72711887 487.08183316 52.40941056 488.15084363 51.09179688 489.2199707 C50.43622803 489.75187012 49.78065918 490.28376953 49.10522461 490.83178711 C44.90990343 494.24064547 40.73477292 497.67297457 36.56884766 501.11767578 C30.11710721 506.452405 23.621776 511.71286964 17.01660156 516.85644531 C11.24245939 521.36591199 5.62694277 526.0562532 0.02929688 530.7824707 C-23.18247464 520.1946451 -38.89167673 494.71468427 -47.63085938 471.69262695 C-54.17494302 453.06788925 -58.12327787 433.67921769 -58.11546326 413.91946411 C-58.1189901 412.85937287 -58.12251695 411.79928163 -58.12615067 410.70706642 C-58.13678255 407.17246359 -58.14050909 403.63788777 -58.14428711 400.10327148 C-58.15059688 397.56137479 -58.15736315 395.0194792 -58.16455078 392.47758484 C-58.1791948 387.01022661 -58.19101042 381.54287367 -58.20049858 376.0755043 C-58.21442957 368.15003856 -58.23562717 360.22460409 -58.25892711 352.29916094 C-58.29680066 339.41144347 -58.33176943 326.52372032 -58.36352539 313.63598633 C-58.36542588 312.86550928 -58.36732638 312.09503224 -58.36928446 311.30120741 C-58.39607019 300.38689524 -58.41995945 289.47257864 -58.44266946 278.55825733 C-58.44506541 277.40708963 -58.44506541 277.40708963 -58.44750977 276.23266602 C-58.44910323 275.46616734 -58.4506967 274.69966867 -58.45233845 273.90994276 C-58.47920576 261.08051224 -58.51364679 248.251115 -58.55416352 235.42172039 C-58.57879356 227.52807648 -58.59720054 219.63446817 -58.60731912 211.74079208 C-58.61565767 205.67304351 -58.63422369 199.60536857 -58.6563797 193.53765297 C-58.66379531 191.06552086 -58.6679326 188.59337617 -58.66837502 186.12123299 C-57.34964543 152.73831491 -57.34964543 152.73831491 -70.97070312 123.7824707 C-75.99371688 120.07500817 -80.80622582 119.20070515 -86.97070312 119.7824707 C-97.27419708 121.35552322 -105.88630465 125.96405665 -114.97070312 130.7824707 C-116.30150005 131.45418624 -117.63330085 132.12400478 -118.97070312 132.7824707 C-122.31122226 127.42816343 -125.47610664 121.99699422 -128.40820312 116.4074707 C-128.92253906 115.43036133 -129.436875 114.45325195 -129.96679688 113.4465332 C-131.08469308 110.47997595 -131.03466658 109.67652187 -129.97070312 106.7824707 C-127.88984837 104.75730079 -125.83594464 102.92555468 -123.59570312 101.0949707 C-122.6434082 100.29833008 -122.6434082 100.29833008 -121.671875 99.4855957 C-119.77989371 97.90736005 -117.87765671 96.34256572 -115.97070312 94.7824707 C-115.019375 94.00258789 -114.06804687 93.22270508 -113.08789062 92.41918945 C-111.33209474 90.98572624 -109.57425369 89.55476469 -107.81445312 88.1262207 C-104.49383719 85.38944933 -101.23026604 82.59140685 -97.97070312 79.7824707 C-92.95755539 75.46312798 -87.88532797 71.23149793 -82.74804688 67.05981445 C-79.06231559 64.03761848 -75.4332549 60.95099863 -71.80200195 57.86376953 C-68.43199997 55.00387575 -65.03035056 52.18984088 -61.59570312 49.4074707 C-57.11897647 45.76727107 -52.75533074 42.0126067 -48.40820312 38.2199707 C-43.52069924 33.95713032 -38.57621465 29.81028723 -33.48242188 25.79418945 C-27.60058508 21.08323153 -21.90693854 16.13654919 -16.17138672 11.24926758 C-14.39722424 9.73824467 -12.62149378 8.22907946 -10.84570312 6.7199707 C-10.30131592 6.25486084 -9.75692871 5.78975098 -9.19604492 5.31054688 C-2.6069279 -0.28775678 -2.6069279 -0.28775678 0 0 Z " fill="#FFFFFF" transform="translate(135.970703125,222.217529296875)"/>
<path d="M0 0 C1.76820143 1.52075633 3.51883351 3.06221444 5.25 4.625 C6.05695313 5.34945312 6.86390625 6.07390625 7.6953125 6.8203125 C43.62479559 40.90133343 62.69499567 93.49722997 80.25 138.625 C80.72324707 139.83978027 81.19649414 141.05456055 81.68408203 142.30615234 C87.85534269 158.21073811 93.61248056 174.22778786 99.11169434 190.37573242 C104.12990244 205.08892657 109.29899641 219.75093403 114.43212891 234.42431641 C115.58019627 237.70695935 116.72599606 240.99037202 117.86865234 244.27490234 C128.94972634 276.12451259 140.37056192 307.86953193 154.25 338.625 C154.74209961 339.7176416 155.23419922 340.8102832 155.74121094 341.93603516 C163.96205068 360.02241745 172.77340247 378.63821216 187.25 392.625 C187.91515625 393.28757812 188.5803125 393.95015625 189.265625 394.6328125 C196.45354943 401.39625321 204.85503921 404.98721875 214.73828125 404.921875 C218.45262504 404.48285458 221.5957812 403.12182294 224.98828125 401.59765625 C227.07809017 400.69893013 229.04360673 400.14638467 231.25 399.625 C237.20703125 411.5390625 237.20703125 411.5390625 238.24853516 413.64550781 C239.14609391 415.41961956 240.10635903 417.16167851 241.07421875 418.8984375 C242.25 421.625 242.25 421.625 242.21484375 423.7890625 C240.86627043 426.35517368 239.21870855 427.38121129 236.8125 429 C231.50962534 432.69405982 226.39773241 436.57416571 221.3125 440.5625 C215.4600636 445.13692845 209.57865362 449.66047227 203.62109375 454.09765625 C199.05403347 457.50900569 194.53106087 460.97858882 190 464.4375 C183.70981379 469.23881237 177.40537945 474.01853309 171.0625 478.75 C164.63735226 483.54604191 158.30547346 488.45488255 151.98876953 493.39257812 C146.20096845 497.90829361 140.35305989 502.33753606 134.46289062 506.71875 C133.84994141 507.17507813 133.23699219 507.63140625 132.60546875 508.1015625 C131.73873535 508.74206543 131.73873535 508.74206543 130.85449219 509.39550781 C129.38373646 510.52252026 127.98214622 511.73832828 126.58984375 512.9609375 C123.13546851 515.41763842 121.02047762 514.83793955 116.98828125 514.22265625 C97.25569203 509.91582865 84.98822141 495.70690463 74.25 479.625 C52.44126656 445.49076806 39.52833591 405.34354788 27.125 367.0625 C26.73425293 365.86044922 26.34350586 364.65839844 25.94091797 363.41992188 C25.58658691 362.31068359 25.23225586 361.20144531 24.8671875 360.05859375 C24.39708252 358.58990845 24.39708252 358.58990845 23.91748047 357.09155273 C23.25 354.625 23.25 354.625 23.25 351.625 C19.29356226 354.56696653 16.26875788 357.70808516 13.1875 361.5625 C12.44086594 362.46700897 11.69423187 363.37151794 10.92497253 364.30343628 C9.07938583 366.54993392 7.37879503 368.85373516 5.70698547 371.23147583 C1.52488777 376.80727226 -2.49193891 381.58099366 -9.61929321 382.85272217 C-15.42355118 383.41726283 -21.20143996 383.20322379 -27.01953125 382.9921875 C-29.15322834 382.96602778 -31.28701038 382.94612197 -33.42082214 382.93215942 C-38.99783521 382.87907204 -44.56962357 382.74190659 -50.14459229 382.58630371 C-55.84893112 382.44226658 -61.55412682 382.37897477 -67.25976562 382.30859375 C-78.42545466 382.15910312 -89.58729052 381.92064193 -100.75 381.625 C-100.87973709 382.49808807 -101.00947418 383.37117615 -101.1431427 384.27072144 C-101.31738266 385.4264566 -101.49162262 386.58219177 -101.67114258 387.77294922 C-101.84212967 388.91416229 -102.01311676 390.05537537 -102.18928528 391.23117065 C-103.00151106 396.14731713 -104.1604259 400.9365762 -105.4375 405.75 C-105.69805176 406.73427979 -105.95860352 407.71855957 -106.22705078 408.73266602 C-111.96235117 429.82272884 -120.13655922 449.40814576 -133.75 466.625 C-134.17748535 467.16817871 -134.6049707 467.71135742 -135.04541016 468.27099609 C-142.82351061 477.99146028 -151.66889928 486.74803092 -160.4375 495.5625 C-161.02869629 496.15905396 -161.61989258 496.75560791 -162.22900391 497.37023926 C-163.92155716 499.07441912 -165.62140085 500.7709269 -167.32421875 502.46484375 C-168.09997505 503.24652168 -168.09997505 503.24652168 -168.8914032 504.04399109 C-172.51941168 507.625 -172.51941168 507.625 -174.75 507.625 C-174.75 508.285 -174.75 508.945 -174.75 509.625 C-176.23738235 510.97882149 -177.79430551 512.25639886 -179.375 513.5 C-184.53285625 517.62096762 -189.56026924 521.86165752 -194.53759766 526.19873047 C-201.94805151 532.60948245 -209.79224271 538.45457186 -217.6875 544.25 C-218.50452393 544.85046143 -219.32154785 545.45092285 -220.16333008 546.06958008 C-233.19066914 555.63064263 -246.27346936 565.08384776 -259.63134766 574.17871094 C-261.91888047 575.74028554 -264.20006255 577.31085064 -266.48046875 578.8828125 C-275.8003643 585.29931669 -285.18180798 591.5843959 -294.75 597.625 C-298.88190908 593.89424714 -301.84820737 589.42172477 -305 584.875 C-305.55429687 584.08222656 -306.10859375 583.28945313 -306.6796875 582.47265625 C-308.04006438 580.52591002 -309.39669316 578.57666452 -310.75 576.625 C-307.81375163 572.96113999 -305.0689327 569.85150351 -301.3125 567 C-289.0946507 557.47080916 -277.83351688 547.40223261 -267.75 535.625 C-266.925 534.68914063 -266.1 533.75328125 -265.25 532.7890625 C-213.99908694 474.16637942 -203.79879951 398.15583237 -197.75 323.38671875 C-194.26461464 280.40888422 -194.26461464 280.40888422 -190.75 262.625 C-190.5845166 261.76664551 -190.4190332 260.90829102 -190.24853516 260.02392578 C-183.93523544 228.45742718 -167.6114865 199.04802125 -145.75 175.625 C-144.59918628 174.29596291 -143.45310316 172.96281024 -142.3125 171.625 C-135.73589243 164.11103687 -128.6527973 157.32200924 -120.84765625 151.09765625 C-118.56226724 149.27337977 -116.30418345 147.43059112 -114.05859375 145.55859375 C-105.52533303 138.47395864 -96.75469678 131.98914792 -87.53613281 125.82666016 C-84.9167239 124.06439517 -82.3328518 122.2527719 -79.75 120.4375 C-78.96625 119.88707031 -78.1825 119.33664062 -77.375 118.76953125 C-76.83875 118.39183594 -76.3025 118.01414062 -75.75 117.625 C-86.66032745 103.86242973 -103.50190862 93.9803361 -120.75 90.625 C-121.66910156 90.44324219 -122.58820313 90.26148438 -123.53515625 90.07421875 C-154.74336772 85.71341156 -186.06357737 98.70743332 -211.50805664 115.7644043 C-212.26465576 116.26496338 -213.02125488 116.76552246 -213.80078125 117.28125 C-214.46762939 117.73306641 -215.13447754 118.18488281 -215.8215332 118.65039062 C-217.75 119.625 -217.75 119.625 -221.75 119.625 C-223.3215332 117.94433594 -223.3215332 117.94433594 -224.80078125 115.609375 C-225.33380859 114.77019531 -225.86683594 113.93101562 -226.41601562 113.06640625 C-227.23102539 111.73416016 -227.23102539 111.73416016 -228.0625 110.375 C-228.62517578 109.50230469 -229.18785156 108.62960937 -229.76757812 107.73046875 C-233.81495363 101.24079689 -233.81495363 101.24079689 -233.52392578 98.48168945 C-232.37130585 95.71649242 -230.47593781 94.1082468 -228.3125 92.0625 C-225.75340357 89.62663453 -223.71681053 87.57521579 -221.75 84.625 C-221.09 84.625 -220.43 84.625 -219.75 84.625 C-219.50765625 84.04621094 -219.2653125 83.46742188 -219.015625 82.87109375 C-217.51201653 80.2026528 -215.81950246 78.68826288 -213.5 76.6875 C-209.80651457 73.45236918 -206.17793234 70.17233635 -202.60205078 66.80761719 C-197.04054449 61.57843556 -191.39433866 56.55297093 -185.4296875 51.78125 C-182.65727289 49.55038577 -179.95703238 47.24710104 -177.25 44.9375 C-165.40362368 35.05009477 -152.79290334 25.87091607 -139.75 17.625 C-138.67621094 16.94566406 -137.60242188 16.26632813 -136.49609375 15.56640625 C-96.00672759 -9.58702405 -42.44612789 -33.73004537 0 0 Z M-54.75 147.625 C-71.17438578 186.57425771 -79.28089456 227.9218069 -85.125 269.625 C-85.25841797 270.57091003 -85.39183594 271.51682007 -85.52929688 272.49139404 C-85.9088935 275.20174462 -86.28045676 277.91305018 -86.6484375 280.625 C-86.76061615 281.43103668 -86.8727948 282.23707336 -86.9883728 283.0675354 C-87.13987289 284.20973038 -87.13987289 284.20973038 -87.29443359 285.375 C-87.42717178 286.35726562 -87.42717178 286.35726562 -87.56259155 287.359375 C-87.8172527 290.43803376 -87.75 293.53582664 -87.75 296.625 C-57.06 296.625 -26.37 296.625 5.25 296.625 C3.47274766 290.10840807 1.70474847 283.66134698 -0.359375 277.2421875 C-0.60271072 276.48146942 -0.84604645 275.72075134 -1.09675598 274.9369812 C-1.89322571 272.45647044 -2.69542478 269.97789314 -3.5 267.5 C-3.78011932 266.63717407 -4.06023865 265.77434814 -4.34884644 264.88537598 C-23.44589182 203.93912595 -23.44589182 203.93912595 -52.75 147.625 C-53.41 147.625 -54.07 147.625 -54.75 147.625 Z " fill="#FFFFFF" transform="translate(828.75,238.375)"/>
</svg>
